<svg xmlns="http://www.w3.org/2000/svg" xmlns:xlink="http://www.w3.org/1999/xlink" width="0" height="0" style="position:absolute">
	
      <symbol id="icon-facebook" viewBox="0 0 30 30">
            <path d="M15 0.0605469C6.75 0.0605469 0 6.79555 0 15.0905C0 22.5905 5.49 28.8155 12.66 29.9405V19.4405H8.85V15.0905H12.66V11.7755C12.66 8.01055 14.895 5.94055 18.33 5.94055C19.965 5.94055 21.675 6.22555 21.675 6.22555V9.93054H19.785C17.925 9.93054 17.34 11.0855 17.34 12.2705V15.0905H21.51L20.835 19.4405H17.34V29.9405C20.8747 29.3823 24.0933 27.5788 26.4149 24.8556C28.7365 22.1325 30.008 18.669 30 15.0905C30 6.79555 23.25 0.0605469 15 0.0605469Z" />
            <clipPath>
                  <rect />
            </clipPath>
      </symbol>

      <symbol id="icon-instagram" viewBox="0 0 30 30">
            <path d="M19.4996 14.9999C19.4996 16.1933 19.0255 17.3379 18.1816 18.1818C17.3377 19.0257 16.1931 19.4999 14.9996 19.4999C13.8061 19.4999 12.6615 19.0257 11.8176 18.1818C10.9737 17.3379 10.4996 16.1933 10.4996 14.9999C10.4996 14.7434 10.5266 14.4929 10.5731 14.2499H8.99961V20.2454C8.99961 20.6624 9.33711 20.9999 9.75411 20.9999H20.2466C20.4465 20.9995 20.638 20.9198 20.7792 20.7783C20.9203 20.6369 20.9996 20.4452 20.9996 20.2454V14.2499H19.4261C19.4726 14.4929 19.4996 14.7434 19.4996 14.9999ZM14.9996 17.9999C15.3937 17.9998 15.7839 17.922 16.1479 17.7711C16.5119 17.6203 16.8427 17.3991 17.1212 17.1204C17.3998 16.8417 17.6208 16.5109 17.7715 16.1467C17.9222 15.7826 17.9997 15.3924 17.9996 14.9984C17.9995 14.6043 17.9218 14.2141 17.7709 13.8501C17.62 13.486 17.3989 13.1553 17.1202 12.8767C16.8415 12.5981 16.5106 12.3772 16.1465 12.2265C15.7824 12.0758 15.3922 11.9983 14.9981 11.9984C14.2023 11.9986 13.4391 12.3149 12.8765 12.8778C12.3139 13.4407 11.9979 14.204 11.9981 14.9999C11.9983 15.7957 12.3146 16.5589 12.8775 17.1215C13.4404 17.6841 14.2038 18.0001 14.9996 17.9999ZM18.5996 11.8499H20.3981C20.5176 11.8499 20.6322 11.8025 20.7168 11.7181C20.8015 11.6338 20.8492 11.5193 20.8496 11.3999V9.60135C20.8496 9.48161 20.802 9.36677 20.7174 9.28209C20.6327 9.19742 20.5179 9.14985 20.3981 9.14985H18.5996C18.4799 9.14985 18.365 9.19742 18.2803 9.28209C18.1957 9.36677 18.1481 9.48161 18.1481 9.60135V11.3999C18.1496 11.6474 18.3521 11.8499 18.5996 11.8499ZM14.9996 0.599854C11.1805 0.599854 7.51779 2.11699 4.81727 4.81752C2.11675 7.51804 0.599609 11.1807 0.599609 14.9999C0.599609 18.819 2.11675 22.4817 4.81727 25.1822C7.51779 27.8827 11.1805 29.3999 14.9996 29.3999C16.8906 29.3999 18.7632 29.0274 20.5103 28.3037C22.2573 27.5801 23.8448 26.5194 25.1819 25.1822C26.5191 23.845 27.5798 22.2576 28.3035 20.5105C29.0271 18.7634 29.3996 16.8909 29.3996 14.9999C29.3996 13.1088 29.0271 11.2363 28.3035 9.48921C27.5798 7.74212 26.5191 6.15468 25.1819 4.81752C23.8448 3.48035 22.2573 2.41966 20.5103 1.69599C18.7632 0.972321 16.8906 0.599854 14.9996 0.599854ZM22.4996 20.8334C22.4996 21.7499 21.7496 22.4999 20.8331 22.4999H9.16611C8.24961 22.4999 7.49961 21.7499 7.49961 20.8334V9.16635C7.49961 8.24985 8.24961 7.49985 9.16611 7.49985H20.8331C21.7496 7.49985 22.4996 8.24985 22.4996 9.16635V20.8334Z"/>
            <clipPath >
                  <rect />
            </clipPath>
      </symbol>

      <symbol id="icon-vk" viewBox="0 0 30 30">   
            <path d="M15 0C6.71562 0 0 6.71562 0 15C0 23.2844 6.71562 30 15 30C23.2844 30 30 23.2844 30 15C30 6.71562 23.2844 0 15 0ZM20.7687 16.9234C20.7687 16.9234 22.0953 18.2328 22.4219 18.8406C22.4312 18.8531 22.4359 18.8656 22.4391 18.8719C22.5719 19.0953 22.6031 19.2687 22.5375 19.3984C22.4281 19.6141 22.0531 19.7203 21.925 19.7297H19.5812C19.4187 19.7297 19.0781 19.6875 18.6656 19.4031C18.3484 19.1812 18.0359 18.8172 17.7312 18.4625C17.2766 17.9344 16.8828 17.4781 16.4859 17.4781C16.4355 17.478 16.3854 17.4859 16.3375 17.5016C16.0375 17.5984 15.6531 18.0266 15.6531 19.1672C15.6531 19.5234 15.3719 19.7281 15.1734 19.7281H14.1C13.7344 19.7281 11.8297 19.6 10.1422 17.8203C8.07656 15.6406 6.21719 11.2687 6.20156 11.2281C6.08437 10.9453 6.32656 10.7937 6.59062 10.7937H8.95781C9.27344 10.7937 9.37656 10.9859 9.44844 11.1562C9.53281 11.3547 9.84219 12.1437 10.35 13.0312C11.1734 14.4781 11.6781 15.0656 12.0828 15.0656C12.1587 15.0647 12.2332 15.0454 12.3 15.0094C12.8281 14.7156 12.7297 12.8328 12.7062 12.4422C12.7062 12.3687 12.7047 11.6 12.4344 11.2312C12.2406 10.9641 11.9109 10.8625 11.7109 10.825C11.7919 10.7133 11.8985 10.6227 12.0219 10.5609C12.3844 10.3797 13.0375 10.3531 13.6859 10.3531H14.0469C14.75 10.3625 14.9313 10.4078 15.1859 10.4719C15.7016 10.5953 15.7125 10.9281 15.6672 12.0672C15.6531 12.3906 15.6391 12.7562 15.6391 13.1875C15.6391 13.2812 15.6344 13.3812 15.6344 13.4875C15.6187 14.0672 15.6 14.725 16.0094 14.9953C16.0628 15.0288 16.1245 15.0467 16.1875 15.0469C16.3297 15.0469 16.7578 15.0469 17.9172 13.0578C18.2747 12.4176 18.5855 11.7523 18.8469 11.0672C18.8703 11.0266 18.9391 10.9016 19.0203 10.8531C19.0803 10.8226 19.1468 10.807 19.2141 10.8078H21.9969C22.3 10.8078 22.5078 10.8531 22.5469 10.9703C22.6156 11.1562 22.5344 11.7234 21.2641 13.4437L20.6969 14.1922C19.5453 15.7016 19.5453 15.7781 20.7687 16.9234Z"/>
            <clipPath>
                  <rect />
            </clipPath>
      </symbol>

      <symbol id="icon-telegram" viewBox="0 0 30 30">   
            <path d="M15 0C6.72 0 0 6.72 0 15C0 23.28 6.72 30 15 30C23.28 30 30 23.28 30 15C30 6.72 23.28 0 15 0ZM21.96 10.2C21.735 12.57 20.76 18.33 20.265 20.985C20.055 22.11 19.635 22.485 19.245 22.53C18.375 22.605 17.715 21.96 16.875 21.405C15.555 20.535 14.805 19.995 13.53 19.155C12.045 18.18 13.005 17.64 13.86 16.77C14.085 16.545 17.925 13.05 18 12.735C18.0104 12.6873 18.009 12.6378 17.996 12.5907C17.9829 12.5437 17.9585 12.5005 17.925 12.465C17.835 12.39 17.715 12.42 17.61 12.435C17.475 12.465 15.375 13.86 11.28 16.62C10.68 17.025 10.14 17.235 9.66 17.22C9.12 17.205 8.1 16.92 7.335 16.665C6.39 16.365 5.655 16.2 5.715 15.675C5.745 15.405 6.12 15.135 6.825 14.85C11.205 12.945 14.115 11.685 15.57 11.085C19.74 9.345 20.595 9.045 21.165 9.045C21.285 9.045 21.57 9.075 21.75 9.225C21.9 9.345 21.945 9.51 21.96 9.63C21.945 9.72 21.975 9.99 21.96 10.2Z"/>
            <clipPath>
                  <rect />
            </clipPath>
      </symbol>

      <symbol id="icon-burger" viewBox="0 0 32 32">   
            <path d="M5.33333 24H26.6667C27.4 24 28 23.4 28 22.6667C28 21.9333 27.4 21.3333 26.6667 21.3333H5.33333C4.6 21.3333 4 21.9333 4 22.6667C4 23.4 4.6 24 5.33333 24ZM5.33333 17.3333H26.6667C27.4 17.3333 28 16.7333 28 16C28 15.2667 27.4 14.6667 26.6667 14.6667H5.33333C4.6 14.6667 4 15.2667 4 16C4 16.7333 4.6 17.3333 5.33333 17.3333ZM4 9.33333C4 10.0667 4.6 10.6667 5.33333 10.6667H26.6667C27.4 10.6667 28 10.0667 28 9.33333C28 8.6 27.4 8 26.6667 8H5.33333C4.6 8 4 8.6 4 9.33333Z"/>
      </symbol>

      <symbol id="icon-close" viewBox="0 0 24 24">   
            <path d="M18.3002 5.70998C18.2077 5.61728 18.0978 5.54373 17.9768 5.49355C17.8559 5.44337 17.7262 5.41754 17.5952 5.41754C17.4643 5.41754 17.3346 5.44337 17.2136 5.49355C17.0926 5.54373 16.9827 5.61728 16.8902 5.70998L12.0002 10.59L7.11022 5.69998C7.01764 5.6074 6.90773 5.53396 6.78677 5.48385C6.6658 5.43375 6.53615 5.40796 6.40522 5.40796C6.27429 5.40796 6.14464 5.43375 6.02368 5.48385C5.90272 5.53396 5.79281 5.6074 5.70022 5.69998C5.60764 5.79256 5.5342 5.90247 5.4841 6.02344C5.43399 6.1444 5.4082 6.27405 5.4082 6.40498C5.4082 6.53591 5.43399 6.66556 5.4841 6.78652C5.5342 6.90749 5.60764 7.0174 5.70022 7.10998L10.5902 12L5.70022 16.89C5.60764 16.9826 5.5342 17.0925 5.4841 17.2134C5.43399 17.3344 5.4082 17.464 5.4082 17.595C5.4082 17.7259 5.43399 17.8556 5.4841 17.9765C5.5342 18.0975 5.60764 18.2074 5.70022 18.3C5.79281 18.3926 5.90272 18.466 6.02368 18.5161C6.14464 18.5662 6.27429 18.592 6.40522 18.592C6.53615 18.592 6.6658 18.5662 6.78677 18.5161C6.90773 18.466 7.01764 18.3926 7.11022 18.3L12.0002 13.41L16.8902 18.3C16.9828 18.3926 17.0927 18.466 17.2137 18.5161C17.3346 18.5662 17.4643 18.592 17.5952 18.592C17.7262 18.592 17.8558 18.5662 17.9768 18.5161C18.0977 18.466 18.2076 18.3926 18.3002 18.3C18.3928 18.2074 18.4662 18.0975 18.5163 17.9765C18.5665 17.8556 18.5922 17.7259 18.5922 17.595C18.5922 17.464 18.5665 17.3344 18.5163 17.2134C18.4662 17.0925 18.3928 16.9826 18.3002 16.89L13.4102 12L18.3002 7.10998C18.6802 6.72998 18.6802 6.08998 18.3002 5.70998Z"/>
      </symbol>
	
</svg>
